<svg xmlns="http://www.w3.org/2000/svg" version="1.1" xmlns:xlink="http://www.w3.org/1999/xlink" xmlns:svgjs="http://svgjs.dev/svgjs" width="1000" height="1125" viewBox="0 0 1000 1125"><g transform="matrix(1,0,0,1,0,0)"><svg viewBox="0 0 320 360" data-background-color="#ffffff" preserveAspectRatio="xMidYMid meet" height="1125" width="1000" xmlns="http://www.w3.org/2000/svg" xmlns:xlink="http://www.w3.org/1999/xlink"><g id="tight-bounds" transform="matrix(1,0,0,1,0,0)"><svg viewBox="0 0 320 360" height="360" width="320"><g><svg></svg></g><g><svg viewBox="0 0 320 360" height="360" width="320"><g><path xmlns="http://www.w3.org/2000/svg" d="M320 187.111c0-45.764-20.238-86.866-52.203-114.908-28.043-31.964-69.145-52.203-114.908-52.203-84.302 0-152.889 68.587-152.889 152.889 0 45.753 20.231 86.848 52.185 114.891 28.043 31.975 69.152 52.22 114.926 52.22 0.299 0 0.59-0.021 0.889-0.021 0.299 0 0.59 0.021 0.889 0.021 83.456 0 151.111-67.655 151.111-151.111 0-0.299-0.021-0.59-0.021-0.889 0-0.299 0.021-0.59 0.021-0.889zM59.833 263.097c-15.093-21.255-24.071-47.143-24.256-75.097 0.48-72.928 59.492-131.943 132.423-132.423 27.954 0.185 53.845 9.163 75.097 24.256 24.366 23.627 39.57 56.64 39.57 93.056 0 71.559-58.219 129.778-129.778 129.778-36.416 0-69.429-15.204-93.056-39.57zM3.556 172.889c0-82.343 66.99-149.333 149.333-149.333 35.051 0 67.292 12.167 92.8 32.462-22.98-13.824-49.863-21.796-78.578-21.796-84.302 0-152.889 68.587-152.889 152.889 0 28.708 7.968 55.584 21.785 78.56-20.288-25.5-32.452-57.739-32.451-92.782zM167.111 318.667c-35.84 0-68.363-14.418-92.107-37.743 21.952 15.89 48.864 25.298 77.885 25.298 73.522 0 133.333-59.812 133.333-133.333 0-29.02-9.408-55.932-25.298-77.885 23.324 23.744 37.742 56.267 37.743 92.107 0 72.54-59.015 131.556-131.556 131.556z" fill="#0718c4" fill-rule="nonzero" stroke="none" stroke-width="1" stroke-linecap="butt" stroke-linejoin="miter" stroke-miterlimit="10" stroke-dasharray="" stroke-dashoffset="0" font-family="none" font-weight="none" font-size="none" text-anchor="none" style="mix-blend-mode: normal" data-fill-palette-color="tertiary"></path></g><g transform="matrix(1,0,0,1,105.20588235294117,99)"><svg viewBox="0 0 109.58823529411765 162" height="162" width="109.58823529411765"><g><svg viewBox="0 0 109.58823529411765 162" height="162" width="109.58823529411765"><g><svg viewBox="0 0 109.58823529411765 162" height="162" width="109.58823529411765"><g id="textblocktransform"><svg viewBox="0 0 109.58823529411765 162" height="162" width="109.58823529411765" id="textblock"><g><svg viewBox="0 0 109.58823529411765 162" height="162" width="109.58823529411765"><g transform="matrix(1,0,0,1,0,0)"><svg width="109.58823529411765" viewBox="2.319999933242798 -36.040000915527344 24.71000099182129 36.53000259399414" height="162" data-palette-color="#0718c4"><path d="M27.03-18.7L27.03-4.03Q24.95-1.78 21.94-0.65 18.92 0.49 15.33 0.49L15.33 0.49Q9.2 0.49 5.81-3.31 2.42-7.1 2.32-14.36L2.32-14.36 2.32-20.75Q2.32-28.1 5.53-32.07 8.74-36.04 14.89-36.04L14.89-36.04Q20.68-36.04 23.62-33.18 26.56-30.32 27.03-24.22L27.03-24.22 20.04-24.22Q19.75-27.61 18.63-28.85 17.5-30.08 15.11-30.08L15.11-30.08Q12.21-30.08 10.89-27.95 9.57-25.83 9.52-21.19L9.52-21.19 9.52-14.75Q9.52-9.89 10.97-7.68 12.43-5.47 15.75-5.47L15.75-5.47Q17.87-5.47 19.19-6.32L19.19-6.32 19.82-6.76 19.82-13.28 14.79-13.28 14.79-18.7 27.03-18.7Z" opacity="1" transform="matrix(1,0,0,1,0,0)" fill="#0718c4" class="undefined-text-0" data-fill-palette-color="primary" id="text-0"></path></svg></g></svg></g></svg></g></svg></g></svg></g></svg></g></svg></g><defs></defs></svg><rect width="320" height="360" fill="none" stroke="none" visibility="hidden"></rect></g></svg></g></svg>